<svg width="123" height="34" viewBox="0 0 123 34" fill="none" xmlns="http://www.w3.org/2000/svg">
<g clip-path="url(#clip0_1_243)">
<path d="M62.8927 5.90175L1.43288 0.833174C0.663305 0.780099 -0.00012207 1.39045 -0.00012207 2.16003V32.4123C-0.00012207 33.1553 0.583694 33.7391 1.32673 33.7391H45.909L47.3155 29.7055L41.1323 13.8629H45.8825L49.465 24.6104L52.9148 13.8629H57.5588L51.5083 30.024L50.208 33.7391H52.8883C53.4455 33.7391 53.9232 33.3942 54.1355 32.89L64.0338 7.70628C64.3523 6.88363 63.7685 5.98137 62.8927 5.90175ZM5.70535 29.6524V9.03313H10.2432V17.18H18.6024V9.03313H23.1402V29.6524H18.6024V21.3729H10.2432V29.6524H5.70535ZM33.9143 29.9974C31.5259 29.9974 29.5356 29.2544 27.9965 27.7418C26.4573 26.2026 25.6612 24.2389 25.6612 21.7975C25.6612 19.4887 26.4043 17.5515 27.8638 15.9593C29.3233 14.3671 31.2075 13.571 33.4631 13.571C35.9576 13.571 37.8683 14.3936 39.1686 16.0389C40.4955 17.6842 41.1323 19.7276 41.1323 22.1424C41.1323 22.3813 41.1058 22.7793 41.0793 23.3101H30.0929C30.3052 24.3185 30.7563 25.0881 31.4198 25.6188C32.0832 26.1495 32.9324 26.4149 33.9408 26.4149C35.3473 26.4149 36.621 25.8842 37.7621 24.7962L40.3362 27.0518C38.7705 29.0155 36.621 29.9974 33.9143 29.9974ZM30.0398 20.5237H36.7803C36.6476 19.5153 36.2761 18.6926 35.6922 18.0823C35.135 17.4719 34.3654 17.18 33.4631 17.18C32.5609 17.18 31.7913 17.4719 31.2075 18.0823C30.5971 18.6661 30.2256 19.4887 30.0398 20.5237Z" fill="url(#paint0_linear_1_243)"/>
<path d="M65.1745 26.7855C66.1033 28.8288 67.7486 29.8638 70.1369 29.8638C72.4456 29.8638 74.5155 28.9615 76.4262 27.1304C78.3369 25.2994 79.4249 23.0437 79.6637 20.3635C79.8495 18.3467 79.4249 16.7544 78.3899 15.5603C77.355 14.3396 75.9751 13.7558 74.1971 13.7558C72.4722 13.7558 70.7473 14.5519 68.9958 16.1176L72.366 6.82958L68.7835 6.56421L60.6101 29.5453H64.1661L65.1745 26.7855ZM73.9317 25.034C72.7641 26.2547 71.4372 26.8385 70.0042 26.8385C68.8366 26.8385 67.9343 26.467 67.2709 25.724C66.6075 24.9809 66.3421 24.0521 66.4483 22.911C66.6075 21.2923 67.2974 19.8593 68.5447 18.6386C69.7919 17.4179 71.1453 16.781 72.6049 16.781C73.7194 16.781 74.5951 17.126 75.179 17.8425C75.7893 18.5324 76.0282 19.4612 75.922 20.6289C75.7628 22.3272 75.0994 23.8133 73.9317 25.034ZM85.0242 25.9363C84.4139 25.2198 84.122 24.291 84.2281 23.0968H95.5329C96.0902 21.8761 96.4352 20.7615 96.5148 19.7531C96.674 18.0017 96.2494 16.5687 95.241 15.4541C94.2326 14.313 92.773 13.7558 90.8624 13.7558C89.1375 13.7558 87.5187 14.2334 86.0061 15.1622C84.4935 16.091 83.2728 17.2587 82.397 18.6917C81.5213 20.1247 81.0171 21.6107 80.8844 23.1499C80.6987 25.2198 81.1763 26.8651 82.344 28.1123C83.5116 29.333 85.1834 29.9434 87.3329 29.9434C89.6151 29.9434 91.685 29.2269 93.5692 27.7939L92.0565 25.5382C90.6501 26.5466 89.2701 27.0243 87.9433 27.0243C86.643 26.9978 85.6611 26.6528 85.0242 25.9363ZM92.9057 20.6554H84.8385C85.3692 19.4612 86.1122 18.5059 87.0676 17.7629C88.0494 17.0198 89.1375 16.6483 90.3316 16.6483C91.34 16.6483 92.0831 16.9402 92.5607 17.4975C93.0384 18.0548 93.2507 18.7447 93.1711 19.6205C93.0915 20.0716 93.0119 20.4166 92.9057 20.6554ZM113.18 29.8903C111.933 29.8903 110.739 29.6515 109.544 29.1738C108.35 28.6961 107.368 27.9796 106.572 27.1039L108.881 24.9279C110.208 26.3874 111.8 27.1039 113.684 27.1039C114.401 27.1039 115.011 26.9447 115.515 26.5997C116.02 26.2547 116.285 25.8301 116.338 25.2463C116.365 24.8748 116.232 24.5298 115.887 24.2379C115.568 23.946 115.011 23.6275 114.242 23.3091C112.755 22.6722 111.694 22.0619 111.031 21.4515C110.367 20.8146 110.075 19.9654 110.181 18.8774C110.314 17.3913 110.977 16.1706 112.172 15.2153C113.392 14.2334 114.905 13.7558 116.763 13.7558C117.904 13.7558 118.992 13.9681 120 14.3926C121.035 14.7907 121.884 15.3214 122.548 15.9053L120.372 18.1874C119.045 17.0464 117.665 16.4891 116.258 16.4891C115.515 16.4891 114.905 16.6483 114.454 16.9933C114.003 17.3383 113.764 17.7363 113.711 18.2671C113.684 18.6651 113.843 19.0101 114.188 19.302C114.533 19.5939 115.144 19.9389 116.02 20.3104C117.346 20.8942 118.355 21.5046 119.018 22.168C119.682 22.8049 119.974 23.6275 119.867 24.6625C119.735 26.2282 119.018 27.502 117.744 28.4838C116.524 29.4126 114.985 29.8903 113.18 29.8903ZM98.3724 28.988C99.0093 29.5453 99.9381 29.8107 101.185 29.8107C102.3 29.8107 103.282 29.6249 104.157 29.2534L105.272 26.1751C104.449 26.5201 103.68 26.6793 102.963 26.6793C101.928 26.6793 101.451 26.2813 101.504 25.4851C101.53 25.1402 101.61 24.8483 101.69 24.6094L104.37 17.126L104.502 16.7544H107.979L108.589 14.2865L105.537 13.8884L106.997 9.82827L103.414 9.50982L102.167 13.3312L102.141 13.4373L99.1419 13.0393L98.2397 16.7544H100.946L100.814 17.126L98.0008 24.9809C97.762 25.6974 97.6293 26.2813 97.5763 26.7589C97.4966 27.7143 97.762 28.4573 98.3724 28.988Z" fill="white"/>
<mask id="mask0_1_243" style="mask-type:alpha" maskUnits="userSpaceOnUse" x="60" y="6" width="63" height="25">
<path d="M122.972 6.03418H60.0791V30.1829H122.972V6.03418Z" fill="white"/>
<path d="M65.1742 26.7857C66.103 28.8291 67.7483 29.864 70.1367 29.864C72.4454 29.864 74.5153 28.9617 76.426 27.1307C78.3366 25.2996 79.4247 23.044 79.6635 20.3637C79.8492 18.3469 79.4247 16.7547 78.3897 15.5605C77.3548 14.3398 75.9748 13.756 74.1968 13.756C72.4719 13.756 70.747 14.5521 68.9956 16.1178L72.3658 6.82982L68.7833 6.56445L60.6099 29.5456H64.1658L65.1742 26.7857ZM73.9315 25.0343C72.7638 26.255 71.437 26.8388 70.004 26.8388C68.8364 26.8388 67.9341 26.4673 67.2707 25.7242C66.6072 24.9812 66.3419 24.0524 66.448 22.9113C66.6072 21.2925 67.2972 19.8595 68.5444 18.6388C69.7917 17.4181 71.1451 16.7812 72.6046 16.7812C73.7192 16.7812 74.5949 17.1262 75.1787 17.8427C75.7891 18.5327 76.0279 19.4615 75.9218 20.6291C75.7625 22.3275 75.0991 23.8135 73.9315 25.0343ZM85.024 25.9365C84.4136 25.22 84.1217 24.2912 84.2279 23.097H95.5327C96.0899 21.8763 96.4349 20.7618 96.5145 19.7534C96.6738 18.0019 96.2492 16.5689 95.2407 15.4544C94.2323 14.3133 92.7728 13.756 90.8621 13.756C89.1372 13.756 87.5185 14.2337 86.0058 15.1625C84.4932 16.0913 83.2725 17.2589 82.3968 18.6919C81.5211 20.1249 81.0169 21.611 80.8842 23.1501C80.6984 25.22 81.1761 26.8653 82.3437 28.1126C83.5114 29.3333 85.1832 29.9436 87.3327 29.9436C89.6149 29.9436 91.6848 29.2271 93.5689 27.7941L92.0563 25.5385C90.6498 26.5469 89.2699 27.0245 87.9431 27.0245C86.6427 26.998 85.6609 26.653 85.024 25.9365ZM92.9055 20.6556H84.8382C85.369 19.4615 86.112 18.5061 87.0673 17.7631C88.0492 17.0201 89.1372 16.6485 90.3314 16.6485C91.3398 16.6485 92.0828 16.9404 92.5605 17.4977C93.0382 18.055 93.2505 18.745 93.1709 19.6207C93.0912 20.0718 93.0116 20.4168 92.9055 20.6556ZM113.18 29.8905C111.933 29.8905 110.738 29.6517 109.544 29.174C108.35 28.6964 107.368 27.9799 106.572 27.1041L108.881 24.9281C110.208 26.3876 111.8 27.1041 113.684 27.1041C114.401 27.1041 115.011 26.9449 115.515 26.5999C116.019 26.255 116.285 25.8304 116.338 25.2466C116.364 24.875 116.232 24.5301 115.887 24.2381C115.568 23.9462 115.011 23.6278 114.241 23.3093C112.755 22.6725 111.694 22.0621 111.03 21.4518C110.367 20.8149 110.075 19.9657 110.181 18.8777C110.314 17.3916 110.977 16.1709 112.171 15.2155C113.392 14.2337 114.905 13.756 116.762 13.756C117.903 13.756 118.991 13.9683 120 14.3929C121.035 14.7909 121.884 15.3217 122.547 15.9055L120.371 18.1877C119.045 17.0466 117.665 16.4893 116.258 16.4893C115.515 16.4893 114.905 16.6485 114.454 16.9935C114.002 17.3385 113.764 17.7366 113.711 18.2673C113.684 18.6654 113.843 19.0103 114.188 19.3022C114.533 19.5942 115.144 19.9391 116.019 20.3107C117.346 20.8945 118.355 21.5048 119.018 22.1683C119.681 22.8051 119.973 23.6278 119.867 24.6627C119.734 26.2284 119.018 27.5022 117.744 28.4841C116.523 29.4129 114.984 29.8905 113.18 29.8905ZM98.3721 28.9883C99.009 29.5456 99.9378 29.8109 101.185 29.8109C102.3 29.8109 103.281 29.6252 104.157 29.2537L105.272 26.1754C104.449 26.5203 103.68 26.6796 102.963 26.6796C101.928 26.6796 101.45 26.2815 101.503 25.4854C101.53 25.1404 101.61 24.8485 101.689 24.6097L104.369 17.1262L104.502 16.7547H107.979L108.589 14.2867L105.537 13.8887L106.997 9.82851L103.414 9.51007L102.167 13.3314L102.14 13.4376L99.1417 13.0395L98.2394 16.7547H100.946L100.814 17.1262L98.0006 24.9812C97.7618 25.6977 97.6291 26.2815 97.576 26.7592C97.4964 27.7145 97.7618 28.4575 98.3721 28.9883Z" fill="black"/>
</mask>
<g mask="url(#mask0_1_243)">
<path d="M65.1749 26.7857L65.4137 26.6796L65.1484 26.0958L64.9361 26.7061L65.1749 26.7857ZM76.4266 27.1573L76.2409 26.9715L76.4266 27.1573ZM79.6642 20.3638L79.9295 20.3903L79.6642 20.3638ZM78.3904 15.5606L78.1781 15.7198L78.3904 15.5606ZM68.9962 16.1178L68.7574 16.0382L69.182 16.3301L68.9962 16.1178ZM72.3665 6.82986L72.6053 6.90947L72.7114 6.59103L72.3665 6.56449V6.82986ZM68.784 6.56449L68.8105 6.29912L68.5982 6.27258L68.5186 6.45834L68.784 6.56449ZM60.6105 29.5456L60.3717 29.466L60.239 29.811H60.6105V29.5456ZM64.193 29.5456V29.811H64.3788L64.4319 29.6252L64.193 29.5456ZM73.9321 25.0343L74.1179 25.2201L73.9321 25.0343ZM66.4487 22.9379L66.7141 22.9644L66.4487 22.9379ZM68.5451 18.6389L68.7309 18.8246L68.5451 18.6389ZM75.1794 17.8427L74.9671 18.0285L75.1794 17.8427ZM75.9224 20.6291L76.1878 20.6557L75.9224 20.6291ZM84.2285 23.0971V22.8317H83.9897L83.9632 23.0706L84.2285 23.0971ZM85.0246 25.9366L84.8389 26.1223L85.0246 25.9366ZM95.5333 23.0971V23.3625H95.6925L95.7722 23.2032L95.5333 23.0971ZM96.5152 19.7534L96.7806 19.78L96.5152 19.7534ZM95.2414 15.4544L95.0291 15.6402L95.2414 15.4544ZM85.98 15.1625L86.1127 15.4013L85.98 15.1625ZM82.3709 18.6654L82.1586 18.5327L82.3709 18.6654ZM80.8318 23.1236L81.0972 23.1502L80.8318 23.1236ZM82.2913 28.0861L82.1056 28.2718L82.2913 28.0861ZM93.5165 27.7676L93.6757 27.9799L93.8615 27.8207L93.7288 27.6084L93.5165 27.7676ZM92.0304 25.512L92.2427 25.3527L92.0835 25.1139L91.8712 25.2731L92.0304 25.512ZM84.8389 20.6557L84.6 20.5495L84.4408 20.921H84.8389V20.6557ZM92.9062 20.6557V20.921H93.0654L93.145 20.7618L92.9062 20.6557ZM87.068 17.7631L86.9088 17.5508L87.068 17.7631ZM92.5346 17.4978L92.3223 17.657L92.5346 17.4978ZM93.145 19.6207L93.4104 19.6473L93.145 19.6207ZM109.545 29.2006L109.439 29.4394L109.545 29.2006ZM106.573 27.1307L106.387 26.945L106.201 27.1307L106.36 27.3165L106.573 27.1307ZM108.908 24.9547L109.094 24.7689L108.908 24.5832L108.722 24.7689L108.908 24.9547ZM116.391 25.2731L116.657 25.2997L116.391 25.2731ZM114.295 23.3359L114.401 23.0971L114.295 23.3359ZM111.084 21.4783L110.898 21.6641L111.084 21.4783ZM110.208 18.9042L109.943 18.8777L110.208 18.9042ZM112.199 15.2421L112.358 15.4544L112.199 15.2421ZM120.027 14.4195L119.921 14.6583L120.027 14.4195ZM122.548 15.9586L122.734 16.1444L122.92 15.9586L122.734 15.7729L122.548 15.9586ZM120.372 18.2408L120.213 18.4531L120.399 18.6123L120.584 18.4266L120.372 18.2408ZM114.454 17.0201L114.295 16.8078L114.454 17.0201ZM113.711 18.2939L113.977 18.3204L113.711 18.2939ZM114.189 19.3288L114.03 19.5411L114.189 19.3288ZM116.02 20.3107L116.126 20.0719L116.02 20.3107ZM119.019 22.1683L118.833 22.354L119.019 22.1683ZM119.868 24.6628L119.602 24.6362L119.868 24.6628ZM117.771 28.4576L117.931 28.6699L117.771 28.4576ZM98.3728 28.9883L98.187 29.1741L98.3728 28.9883ZM104.158 29.2537L104.264 29.4925L104.37 29.4394L104.397 29.3333L104.158 29.2537ZM105.246 26.1754L105.485 26.255L105.697 25.6977L105.14 25.91L105.246 26.1754ZM101.478 25.4854L101.743 25.512L101.478 25.4854ZM101.69 24.6097L101.929 24.7158L101.69 24.6097ZM104.37 17.1262L104.131 17.0466L104.37 17.1262ZM104.503 16.7547V16.4894H104.317L104.264 16.6751L104.503 16.7547ZM107.979 16.7547V17.0201H108.192L108.245 16.8078L107.979 16.7547ZM108.59 14.2868L108.855 14.3399L108.935 14.0479L108.643 14.0214L108.59 14.2868ZM105.538 13.8887L105.299 13.8091L105.193 14.1276L105.511 14.1806L105.538 13.8887ZM106.997 9.82855L107.236 9.90816L107.342 9.58972L106.997 9.56318V9.82855ZM103.415 9.48357L103.441 9.2182L103.229 9.19166L103.176 9.40396L103.415 9.48357ZM102.168 13.3314L102.406 13.4111L102.168 13.3314ZM102.141 13.4376L102.115 13.703L102.327 13.7295L102.406 13.5172L102.141 13.4376ZM99.1424 13.0395L99.1689 12.7742L98.9301 12.7476L98.877 12.9865L99.1424 13.0395ZM98.2401 16.7547L97.9747 16.7017L97.8951 17.0201H98.2401V16.7547ZM100.947 16.7547L101.186 16.8343L101.318 16.4894H100.947V16.7547ZM100.814 17.1262L100.575 17.0466L100.814 17.1262ZM98.0013 24.9812L97.7624 24.9016L98.0013 24.9812ZM97.5767 26.7592L97.842 26.7857L97.5767 26.7592ZM70.1373 29.5987C68.9962 29.5987 68.0409 29.3598 67.2448 28.8556C66.4752 28.378 65.8649 27.6615 65.4137 26.6531L64.9361 26.8654C65.4137 27.9268 66.1037 28.7495 66.9794 29.2802C67.8552 29.8375 68.9166 30.1029 70.1373 30.1029V29.5987ZM76.2409 26.945C74.3833 28.7229 72.3665 29.5987 70.1373 29.5987V30.1294C72.4991 30.1294 74.6752 29.1741 76.6124 27.3165L76.2409 26.945ZM79.3988 20.3638C79.16 22.9909 78.0985 25.167 76.2409 26.9715L76.6124 27.343C78.5761 25.4589 79.6907 23.1502 79.9295 20.3903L79.3988 20.3638ZM78.1781 15.7463C79.1599 16.8609 79.558 18.4 79.3722 20.3638L79.903 20.4168C80.0887 18.347 79.6642 16.6751 78.5761 15.4013L78.1781 15.7463ZM74.1975 14.0214C75.8959 14.0214 77.2227 14.6052 78.1781 15.7463L78.5761 15.4013C77.4881 14.1276 76.0286 13.4907 74.171 13.4907V14.0214H74.1975ZM69.182 16.3301C70.8804 14.7644 72.5522 14.0214 74.1975 14.0214V13.4907C72.393 13.4907 70.5885 14.3133 68.837 15.9321L69.182 16.3301ZM72.1276 6.75025L68.7574 16.0382L69.2616 16.224L72.6318 6.93601L72.1276 6.75025ZM68.7574 6.82986L72.3399 7.09523L72.3665 6.56449L68.784 6.29912L68.7574 6.82986ZM60.8759 29.6517L69.0228 6.67064L68.5186 6.48488L60.3452 29.466L60.8759 29.6517ZM64.193 29.2802H60.6371V29.811H64.193V29.2802ZM64.9095 26.7061L63.9277 29.466L64.4319 29.6517L65.4137 26.8919L64.9095 26.7061ZM70.0047 27.1307C71.5438 27.1307 72.9237 26.4938 74.1179 25.2201L73.7464 24.8485C72.6053 26.0162 71.3846 26.5734 70.0047 26.5734V27.1307ZM67.059 25.91C67.7755 26.7061 68.7574 27.1042 69.9781 27.1042V26.5734C68.8901 26.5734 68.0409 26.2285 67.4571 25.5385L67.059 25.91ZM66.1833 22.9113C66.0772 24.1055 66.3691 25.1139 67.0856 25.9366L67.4836 25.5916C66.8733 24.9016 66.6079 24.0524 66.7141 22.9644L66.1833 22.9113ZM68.3594 18.4531C67.059 19.7269 66.3425 21.213 66.1833 22.9113L66.7141 22.9644C66.8467 21.3987 67.5367 20.0453 68.7309 18.8512L68.3594 18.4531ZM72.5788 16.5424C71.0396 16.5424 69.6331 17.2059 68.3328 18.4531L68.7043 18.8246C69.925 17.6305 71.1988 17.0466 72.5788 17.0466V16.5424ZM75.3651 17.6835C74.7017 16.9139 73.7464 16.5424 72.5788 16.5424V17.0732C73.6402 17.0732 74.4098 17.3916 74.9671 18.0285L75.3651 17.6835ZM76.1878 20.6557C76.2939 19.435 76.0286 18.4266 75.3651 17.6835L74.9671 18.0285C75.4978 18.6389 75.7632 19.488 75.6571 20.6026L76.1878 20.6557ZM74.1179 25.2201C75.3386 23.9463 76.0286 22.4337 76.1878 20.6557L75.6571 20.6026C75.4978 22.2479 74.8609 23.6544 73.7464 24.8485L74.1179 25.2201ZM83.9632 23.0706C83.857 24.3178 84.1489 25.3262 84.8389 26.1223L85.2369 25.7773C84.6797 25.1404 84.4143 24.2647 84.4939 23.1236L83.9632 23.0706ZM95.5333 22.8317H84.2285V23.3625H95.5333V22.8317ZM96.2498 19.7269C96.1702 20.7087 95.8518 21.7968 95.2945 22.9909L95.7722 23.2032C96.356 21.9825 96.6744 20.8149 96.7806 19.78L96.2498 19.7269ZM95.0291 15.6136C95.9845 16.6751 96.409 18.055 96.2498 19.7269L96.7806 19.78C96.9398 17.9754 96.4887 16.4628 95.4272 15.2687L95.0291 15.6136ZM90.8628 14.0214C92.7204 14.0214 94.1003 14.5787 95.0291 15.6402L95.4272 15.2952C94.3657 14.101 92.8265 13.5172 90.8363 13.5172V14.0214H90.8628ZM86.1127 15.3748C87.5987 14.4725 89.1644 13.9949 90.8363 13.9949V13.4641C89.0583 13.4641 87.3864 13.9418 85.8207 14.9237L86.1127 15.3748ZM82.5832 18.8246C83.459 17.4447 84.6266 16.3036 86.1127 15.4013L85.8473 14.9502C84.3081 15.879 83.0609 17.0997 82.1321 18.5592L82.5832 18.8246ZM81.0972 23.1502C81.2298 21.6375 81.734 20.2045 82.5832 18.7981L82.1321 18.5327C81.2298 19.9922 80.7256 21.5049 80.5664 23.0971L81.0972 23.1502ZM82.5036 27.9003C81.4156 26.7327 80.9379 25.167 81.1237 23.1502L80.593 23.0971C80.4072 25.2201 80.9114 26.9715 82.1321 28.2453L82.5036 27.9003ZM87.2803 29.6252C85.1839 29.6252 83.5916 29.0414 82.4771 27.9003L82.1056 28.2718C83.3263 29.5456 85.0777 30.1825 87.2803 30.1825V29.6252ZM93.3573 27.5553C91.5262 28.9352 89.5094 29.6517 87.2803 29.6517V30.1825C89.6156 30.1825 91.7385 29.4394 93.6757 27.9799L93.3573 27.5553ZM91.7916 25.6446L93.3042 27.9003L93.7553 27.6084L92.2427 25.3527L91.7916 25.6446ZM87.9172 27.2634C89.3236 27.2634 90.7566 26.7327 92.1896 25.7243L91.8712 25.2997C90.4913 26.2815 89.191 26.7592 87.9172 26.7592V27.2634ZM84.8389 26.1223C85.5554 26.8919 86.5903 27.2634 87.9172 27.2634V26.7327C86.6965 26.7327 85.8208 26.3877 85.2369 25.7508L84.8389 26.1223ZM84.8389 20.921H92.9062V20.3903H84.8389V20.921ZM86.9088 17.5508C85.9004 18.3204 85.1308 19.3288 84.6 20.5495L85.0777 20.7618C85.5819 19.6207 86.2984 18.6654 87.2272 17.9754L86.9088 17.5508ZM90.3321 16.3832C89.0848 16.3832 87.9437 16.7813 86.9088 17.5508L87.2272 17.9754C88.1826 17.2589 89.191 16.9139 90.3321 16.9139V16.3832ZM92.7469 17.3385C92.2162 16.6751 91.3935 16.3832 90.3321 16.3832V16.9139C91.3139 16.9139 91.9508 17.1793 92.3489 17.657L92.7469 17.3385ZM93.4104 19.6473C93.49 18.7185 93.2777 17.9489 92.7469 17.3385L92.3489 17.6835C92.7735 18.1612 92.9592 18.7981 92.8796 19.5942L93.4104 19.6473ZM93.145 20.7884C93.2777 20.4965 93.3838 20.0984 93.4104 19.6473L92.8796 19.5942C92.8531 20.0188 92.7735 20.3372 92.6673 20.5495L93.145 20.7884ZM109.439 29.4394C110.659 29.9171 111.907 30.1559 113.18 30.1559V29.6252C111.986 29.6252 110.792 29.3864 109.625 28.9352L109.439 29.4394ZM106.387 27.2899C107.21 28.2187 108.218 28.9352 109.439 29.4394L109.651 28.9618C108.483 28.4841 107.555 27.8207 106.785 26.945L106.387 27.2899ZM108.722 24.7424L106.414 26.9184L106.785 27.3165L109.094 25.1404L108.722 24.7424ZM113.711 26.8654C111.907 26.8654 110.368 26.1754 109.094 24.7955L108.696 25.1404C110.076 26.6265 111.747 27.3961 113.711 27.3961V26.8654ZM115.41 26.3877C114.958 26.6796 114.401 26.8388 113.711 26.8388V27.3696C114.481 27.3696 115.144 27.1838 115.701 26.8388L115.41 26.3877ZM116.126 25.2466C116.073 25.7243 115.861 26.0958 115.41 26.3877L115.701 26.8388C116.259 26.4673 116.577 25.9366 116.657 25.2997L116.126 25.2466ZM115.755 24.477C116.02 24.7158 116.126 24.9812 116.1 25.2466L116.63 25.2997C116.683 24.822 116.471 24.4239 116.1 24.079L115.755 24.477ZM114.189 23.5748C114.958 23.8932 115.463 24.2116 115.755 24.477L116.1 24.079C115.728 23.7605 115.144 23.4421 114.375 23.0971L114.189 23.5748ZM110.898 21.6906C111.615 22.3275 112.703 22.9644 114.189 23.5748L114.401 23.0971C112.942 22.4867 111.907 21.8764 111.27 21.2926L110.898 21.6906ZM109.943 18.8777C109.837 20.0453 110.129 20.9741 110.872 21.6641L111.243 21.266C110.633 20.7088 110.368 19.9392 110.474 18.9042L109.943 18.8777ZM112.039 15.0298C110.792 16.0382 110.102 17.312 109.969 18.8777L110.5 18.9308C110.633 17.5243 111.243 16.3567 112.384 15.4544L112.039 15.0298ZM116.79 13.5172C114.905 13.5172 113.313 14.0214 112.039 15.0298L112.384 15.4544C113.525 14.5256 115.012 14.0479 116.79 14.0479V13.5172ZM120.133 14.1806C119.072 13.7295 117.957 13.5172 116.79 13.5172V14.0479C117.904 14.0479 118.939 14.2602 119.921 14.6848L120.133 14.1806ZM122.734 15.7463C122.044 15.1094 121.168 14.5787 120.107 14.1806L119.921 14.6848C120.929 15.0829 121.752 15.5871 122.389 16.1444L122.734 15.7463ZM120.558 18.4266L122.734 16.1444L122.362 15.7729L120.186 18.055L120.558 18.4266ZM116.259 16.8078C117.586 16.8078 118.912 17.3385 120.213 18.4531L120.558 18.055C119.204 16.8874 117.771 16.3036 116.285 16.3036V16.8078H116.259ZM114.613 17.2589C115.012 16.967 115.569 16.8078 116.259 16.8078V16.2771C115.463 16.2771 114.799 16.4628 114.295 16.8343L114.613 17.2589ZM113.977 18.3204C114.003 17.8958 114.215 17.5508 114.613 17.2589L114.295 16.8343C113.791 17.2059 113.499 17.6835 113.446 18.2939L113.977 18.3204ZM114.348 19.1165C114.056 18.8777 113.95 18.6123 113.977 18.3204L113.446 18.2673C113.393 18.7715 113.605 19.1696 114.003 19.5146L114.348 19.1165ZM116.1 20.0719C115.224 19.7003 114.667 19.3819 114.348 19.1165L114.003 19.5146C114.375 19.833 115.012 20.178 115.887 20.5495L116.1 20.0719ZM119.204 21.9825C118.514 21.3191 117.479 20.6822 116.126 20.0719L115.914 20.5495C117.241 21.1333 118.223 21.7172 118.859 22.354L119.204 21.9825ZM120.133 24.6893C120.239 23.5748 119.921 22.6725 119.178 21.9825L118.806 22.3806C119.417 22.9379 119.682 23.6809 119.576 24.6628L120.133 24.6893ZM117.931 28.6699C119.257 27.6615 120.001 26.3081 120.133 24.6628L119.602 24.6097C119.47 26.0958 118.806 27.2899 117.586 28.2453L117.931 28.6699ZM113.18 30.1559C115.038 30.1559 116.63 29.6517 117.931 28.6699L117.612 28.2453C116.418 29.1741 114.958 29.6252 113.207 29.6252V30.1559H113.18ZM101.186 29.5456C99.9915 29.5456 99.1158 29.2802 98.5585 28.776L98.2136 29.1741C98.9301 29.7844 99.9385 30.0498 101.186 30.0498V29.5456ZM104.052 29.0149C103.229 29.3598 102.274 29.5456 101.186 29.5456V30.0763C102.327 30.0763 103.362 29.8906 104.264 29.4925L104.052 29.0149ZM105.007 26.0958L103.892 29.1741L104.397 29.3598L105.511 26.2815L105.007 26.0958ZM102.937 26.945C103.707 26.945 104.503 26.7592 105.352 26.4142L105.14 25.91C104.344 26.2285 103.601 26.3877 102.937 26.3877V26.945ZM101.212 25.4589C101.159 25.91 101.292 26.3081 101.61 26.6C101.929 26.8654 102.38 26.9715 102.911 26.9715V26.4408C102.406 26.4408 102.115 26.3346 101.929 26.2019C101.77 26.0692 101.69 25.8569 101.716 25.5385L101.212 25.4589ZM101.451 24.5036C101.345 24.7955 101.265 25.1139 101.239 25.4589L101.77 25.512C101.796 25.1935 101.849 24.9281 101.955 24.7158L101.451 24.5036ZM104.131 17.0201L101.451 24.5036L101.955 24.6893L104.636 17.2059L104.131 17.0201ZM104.264 16.6486L104.131 17.0201L104.636 17.2059L104.768 16.8343L104.264 16.6486ZM107.979 16.4894H104.503V17.0201H107.979V16.4894ZM108.324 14.2072L107.714 16.6751L108.218 16.8078L108.828 14.3399L108.324 14.2072ZM105.511 14.1541L108.563 14.5521L108.643 14.0214L105.591 13.6234L105.511 14.1541ZM106.758 9.7224L105.299 13.7826L105.803 13.9683L107.263 9.90816L106.758 9.7224ZM103.388 9.74894L106.971 10.0674L107.024 9.53664L103.441 9.2182L103.388 9.74894ZM102.433 13.4111L103.68 9.58972L103.176 9.4305L101.902 13.2518L102.433 13.4111ZM102.38 13.5172L102.406 13.4111L101.902 13.2253L101.876 13.3314L102.38 13.5172ZM99.1158 13.3049L102.115 13.703L102.194 13.1722L99.1689 12.7742L99.1158 13.3049ZM98.5055 16.8078L99.4077 13.0926L98.9035 12.9599L98.0013 16.6751L98.5055 16.8078ZM100.947 16.4894H98.2401V17.0201H100.947V16.4894ZM101.053 17.2059L101.186 16.8343L100.682 16.6486L100.549 17.0201L101.053 17.2059ZM98.2401 25.0608L101.053 17.2059L100.549 17.0201L97.7359 24.8751L98.2401 25.0608ZM97.842 26.7857C97.8951 26.3346 98.0278 25.7508 98.2666 25.0608L97.7624 24.9016C97.5236 25.6181 97.3644 26.2285 97.3113 26.7592L97.842 26.7857ZM98.5585 28.8026C98.0013 28.3249 97.7624 27.6615 97.842 26.7857L97.3113 26.7327C97.2317 27.7411 97.4971 28.5637 98.187 29.1741L98.5585 28.8026Z" fill="white"/>
</g>
</g>
<defs>
<linearGradient id="paint0_linear_1_243" x1="-0.000121958" y1="26.4991" x2="64.1218" y2="26.4991" gradientUnits="userSpaceOnUse">
<stop stop-color="#184EFF"/>
<stop offset="1" stop-color="#0AA7FF"/>
</linearGradient>
<clipPath id="clip0_1_243">
<rect width="122.973" height="33.4328" fill="white" transform="translate(0 0.467773)"/>
</clipPath>
</defs>
</svg>
