<svg width="30" height="30" viewBox="0 0 30 30" fill="none" xmlns="http://www.w3.org/2000/svg">
<g clip-path="url(#clip0_1_175)">
<path d="M25.4129 5.28403C23.471 4.37543 21.3945 3.71511 19.2237 3.33911C18.9571 3.82112 18.6456 4.46944 18.4309 4.98518C16.1232 4.63813 13.8367 4.63813 11.5715 4.98518C11.3568 4.46944 11.0383 3.82112 10.7693 3.33911C8.59607 3.71511 6.51726 4.37786 4.5753 5.28884C0.658365 11.2078 -0.403453 16.9798 0.127457 22.6699C2.72538 24.6099 5.24307 25.7885 7.71828 26.5596C8.32942 25.7185 8.87448 24.8244 9.34403 23.8821C8.44975 23.5423 7.59322 23.123 6.7839 22.6361C6.99861 22.4771 7.20863 22.3108 7.41154 22.1396C12.3478 24.4485 17.7112 24.4485 22.5885 22.1396C22.7938 22.3108 23.0038 22.4771 23.2161 22.6361C22.4044 23.1253 21.5455 23.5447 20.6513 23.8845C21.1208 24.8244 21.6635 25.721 22.277 26.562C24.7546 25.7908 27.2746 24.6123 29.8726 22.6699C30.4955 16.0737 28.8084 10.3547 25.4129 5.28403ZM10.0165 19.1705C8.53471 19.1705 7.3195 17.7872 7.3195 16.1026C7.3195 14.418 8.50876 13.0322 10.0165 13.0322C11.5243 13.0322 12.7395 14.4156 12.7136 16.1026C12.7159 17.7872 11.5243 19.1705 10.0165 19.1705ZM19.9835 19.1705C18.5017 19.1705 17.2865 17.7872 17.2865 16.1026C17.2865 14.418 18.4757 13.0322 19.9835 13.0322C21.4913 13.0322 22.7065 14.4156 22.6805 16.1026C22.6805 17.7872 21.4913 19.1705 19.9835 19.1705Z" fill="url(#paint0_linear_1_175)"/>
</g>
<defs>
<linearGradient id="paint0_linear_1_175" x1="24.2648" y1="5.81508" x2="8.31256" y2="26.4226" gradientUnits="userSpaceOnUse">
<stop stop-color="#FF8F03"/>
<stop offset="1" stop-color="#C22863"/>
</linearGradient>
<clipPath id="clip0_1_175">
<rect width="30" height="30" fill="white" transform="translate(6.10352e-05 -0.000732422)"/>
</clipPath>
</defs>
</svg>
