<svg width="84" height="44" viewBox="0 0 84 44" fill="none" xmlns="http://www.w3.org/2000/svg">
<path d="M82.1914 6.86075L2.72498 0.185878C1.72993 0.115984 0.872131 0.919765 0.872131 1.93323V41.7728C0.872131 42.7513 1.62699 43.5201 2.58773 43.5201H60.2318L62.0503 38.2082L54.0556 17.3448H60.1974L64.8296 31.4984L69.2901 17.3448H75.2947L67.4716 38.6276L65.7903 43.5201H69.2558C69.9763 43.5201 70.594 43.0658 70.8685 42.4018L83.6668 9.23715C84.0786 8.15379 83.3237 6.96559 82.1914 6.86075ZM8.2492 38.1383V10.9845H14.1165V21.7132H24.9248V10.9845H30.7921V38.1383H24.9248V27.2348H14.1165V38.1383H8.2492ZM44.7228 38.5926C41.6347 38.5926 39.0613 37.6141 37.0712 35.6221C35.0811 33.5952 34.0518 31.0091 34.0518 27.794C34.0518 24.7536 35.0125 22.2025 36.8997 20.1057C38.7868 18.0088 41.223 16.9604 44.1395 16.9604C47.3648 16.9604 49.8353 18.0438 51.5165 20.2105C53.2321 22.3772 54.0556 25.0681 54.0556 28.2483C54.0556 28.5628 54.0213 29.087 53.987 29.786H39.7819C40.0564 31.114 40.6397 32.1274 41.4975 32.8264C42.3553 33.5253 43.4532 33.8748 44.7571 33.8748C46.5756 33.8748 48.2226 33.1758 49.698 31.743L53.0263 34.7135C51.0019 37.2996 48.2226 38.5926 44.7228 38.5926ZM39.7132 26.1165H48.4285C48.2569 24.7886 47.7765 23.7052 47.0217 22.9014C46.3011 22.0976 45.3061 21.7132 44.1395 21.7132C42.9729 21.7132 41.9778 22.0976 41.223 22.9014C40.4338 23.6703 39.9534 24.7536 39.7132 26.1165Z" fill="url(#paint0_linear_1_547)"/>
<defs>
<linearGradient id="paint0_linear_1_547" x1="0.872131" y1="33.9857" x2="83.7806" y2="33.9857" gradientUnits="userSpaceOnUse">
<stop stop-color="#184EFF"/>
<stop offset="1" stop-color="#0AA7FF"/>
</linearGradient>
</defs>
</svg>
