<svg width="37" height="36" viewBox="0 0 37 36" fill="none" xmlns="http://www.w3.org/2000/svg">
<g clip-path="url(#clip0_1_193)">
<path fill-rule="evenodd" clip-rule="evenodd" d="M8.02128 0.315495C8.4421 0.280586 10.607 0.272949 18.0094 0.272949H23.7803C27.9392 0.280175 28.1759 0.314451 28.9659 0.428864L29.0117 0.435495C30.7212 0.68204 32.1557 1.36386 33.3287 2.48422C33.986 3.11668 34.4387 3.73522 34.8465 4.56349C35.3434 5.57531 35.5875 6.53259 35.6993 7.95622C35.7233 8.26168 35.7342 13.1228 35.7342 17.9871C35.7342 22.8507 35.7241 27.7208 35.7001 28.0262C35.5896 29.4272 35.3456 30.3927 34.8642 31.3854C33.9069 33.36 32.1478 34.7999 30.0233 35.3481C29.2528 35.5472 28.556 35.6408 27.356 35.6972C26.9278 35.719 22.4496 35.7245 17.9715 35.7245C13.4933 35.7245 9.01783 35.7109 8.57874 35.6918C7.54237 35.6427 6.7351 35.539 6.00419 35.3509C3.89328 34.8054 2.10146 33.3436 1.16328 31.3963C0.672374 30.379 0.440555 29.449 0.317828 27.9709C0.282374 27.5509 0.274192 25.3881 0.274192 17.9918C0.274192 17.0856 0.273831 16.2632 0.273503 15.5157C0.27293 14.2076 0.272456 13.1287 0.274192 12.2304C0.281163 8.06685 0.315023 7.83326 0.430198 7.03868C0.432172 7.02507 0.43417 7.01128 0.436192 6.99731C0.68301 5.28949 1.36483 3.85277 2.48983 2.68495C3.10756 2.04459 3.73346 1.58777 4.5271 1.19368C5.55692 0.680949 6.50219 0.441767 8.02128 0.315495ZM12.6034 4.98876C13.9998 4.92521 14.4459 4.90967 18.0012 4.90967H17.9971C21.5535 4.90967 21.998 4.92521 23.3944 4.98876C24.788 5.05258 25.7398 5.27321 26.5744 5.59694C27.4362 5.93103 28.1644 6.3783 28.8926 7.10649C29.6208 7.83412 30.068 8.56449 30.4035 9.42549C30.7253 10.2578 30.9462 11.2091 31.0117 12.6028C31.0744 13.9991 31.0908 14.4453 31.0908 18.0006C31.0908 21.5559 31.0744 22.0009 31.0117 23.3973C30.9462 24.7904 30.7253 25.7419 30.4035 26.5746C30.068 27.4353 29.6208 28.1657 28.8926 28.8933C28.1652 29.6215 27.4359 30.0699 26.5752 30.4042C25.7423 30.7279 24.7899 30.9486 23.3963 31.0124C21.9999 31.0759 21.5551 31.0915 17.9996 31.0915C14.4446 31.0915 13.9987 31.0759 12.6023 31.0124C11.2089 30.9486 10.2574 30.7279 9.42448 30.4042C8.56403 30.0699 7.83366 29.6215 7.1063 28.8933C6.37839 28.1657 5.93112 27.4353 5.59648 26.5743C5.27303 25.7419 5.05239 24.7907 4.9883 23.397C4.92503 22.0007 4.90921 21.5559 4.90921 18.0006C4.90921 14.4453 4.92557 13.9988 4.98803 12.6025C5.05076 11.2094 5.27166 10.2578 5.59621 9.42521C5.93166 8.56449 6.37894 7.83412 7.10712 7.10649C7.83476 6.37858 8.56512 5.9313 9.42612 5.59694C10.2585 5.27321 11.2098 5.05258 12.6034 4.98876ZM17.5649 7.26863C17.3002 7.26851 17.0549 7.2684 16.8268 7.26876V7.26549C14.387 7.26821 13.919 7.28458 12.7114 7.33912C11.435 7.39776 10.742 7.61049 10.2806 7.79049C9.66966 8.0283 9.2333 8.31194 8.77512 8.77012C8.31694 9.2283 8.03276 9.66467 7.79548 10.2756C7.6163 10.737 7.40303 11.4298 7.34466 12.7061C7.28194 14.0861 7.26939 14.4985 7.26939 17.9943C7.26939 21.4901 7.28194 21.9047 7.34466 23.2847C7.40276 24.561 7.6163 25.2538 7.79548 25.7147C8.0333 26.3259 8.31694 26.7611 8.77512 27.2193C9.2333 27.6775 9.66966 27.9611 10.2806 28.1984C10.7423 28.3776 11.435 28.5908 12.7114 28.6498C14.0914 28.7125 14.5057 28.7261 18.0012 28.7261C21.4965 28.7261 21.911 28.7125 23.291 28.6498C24.5674 28.5914 25.2607 28.3787 25.7216 28.1987C26.3328 27.9614 26.7678 27.6778 27.2259 27.2196C27.6841 26.7617 27.9683 26.3267 28.2056 25.7158C28.3848 25.2549 28.598 24.5621 28.6564 23.2858C28.7191 21.9058 28.7328 21.4912 28.7328 17.9976C28.7328 14.5039 28.7191 14.0894 28.6564 12.7094C28.5983 11.433 28.3848 10.7403 28.2056 10.2794C27.9678 9.66849 27.6841 9.23212 27.2259 8.77394C26.768 8.31576 26.3325 8.03212 25.7216 7.79485C25.2601 7.61567 24.5674 7.4024 23.291 7.34403C21.9108 7.2813 21.4965 7.26876 18.0012 7.26876C17.8501 7.26876 17.7048 7.26869 17.5649 7.26863ZM23.4181 11.0128C23.4181 10.1452 24.1218 9.4424 24.989 9.4424V9.44185C25.8563 9.44185 26.5599 10.1455 26.5599 11.0128C26.5599 11.88 25.8563 12.5837 24.989 12.5837C24.1218 12.5837 23.4181 11.88 23.4181 11.0128ZM11.2785 18.0006C11.2785 14.2879 14.2886 11.2778 18.0012 11.2778C21.7138 11.2778 24.7228 14.2879 24.7228 18.0006C24.7228 21.7132 21.7138 24.7219 18.0012 24.7219C14.2886 24.7219 11.2785 21.7132 11.2785 18.0006ZM22.3648 18.0006C22.3648 15.5905 20.411 13.6369 18.0012 13.6369C15.5911 13.6369 13.6376 15.5905 13.6376 18.0006C13.6376 20.4104 15.5911 22.3642 18.0012 22.3642C20.411 22.3642 22.3648 20.4104 22.3648 18.0006Z" fill="url(#paint0_linear_1_193)"/>
</g>
<defs>
<linearGradient id="paint0_linear_1_193" x1="28.9548" y1="4.05271" x2="3.79989" y2="29.2145" gradientUnits="userSpaceOnUse">
<stop stop-color="#FF8F03"/>
<stop offset="1" stop-color="#C22863"/>
</linearGradient>
<clipPath id="clip0_1_193">
<rect width="36.0011" height="36" fill="white" transform="translate(3.05176e-05 -0.000488281)"/>
</clipPath>
</defs>
</svg>
