<svg width="35" height="25" viewBox="0 0 35 25" fill="none" xmlns="http://www.w3.org/2000/svg">
<path d="M18.3154 24.4474L11.1996 24.3172C8.89572 24.2719 6.58606 24.3624 4.32731 23.8926C0.891232 23.1907 0.647808 19.7488 0.39309 16.8618C0.0421154 12.803 0.177988 8.67053 0.840323 4.64561C1.21423 2.38721 2.68572 1.03961 4.96133 0.892962C12.6432 0.360765 20.3761 0.423836 28.0409 0.672125C28.8504 0.694886 29.6655 0.819291 30.4637 0.960897C34.4038 1.65155 34.4999 5.55189 34.7553 8.83525C35.01 12.1525 34.9025 15.4867 34.4156 18.7814C34.025 21.5093 33.2777 23.7969 30.124 24.0177C26.1726 24.3065 22.3118 24.539 18.3493 24.4649C18.3495 24.4474 18.3267 24.4474 18.3154 24.4474ZM14.132 17.5412C17.1098 15.8315 20.0307 14.1503 22.9914 12.452C20.0081 10.7423 17.0927 9.06112 14.132 7.36289V17.5412Z" fill="url(#paint0_linear_1_212)"/>
<defs>
<linearGradient id="paint0_linear_1_212" x1="28.2582" y1="3.04479" x2="12.3286" y2="26.0732" gradientUnits="userSpaceOnUse">
<stop stop-color="#FF8F03"/>
<stop offset="1" stop-color="#C22863"/>
</linearGradient>
</defs>
</svg>
