<svg width="600" height="1022" viewBox="0 0 600 1022" fill="none" xmlns="http://www.w3.org/2000/svg">
<g opacity="0.5">
<path opacity="0.0344828" d="M129.929 801.638C134.837 807.486 142.235 811.111 151.96 812.57C161.695 814.03 173.698 813.308 187.696 810.51C215.69 804.914 251.455 791.061 292.573 770.143C374.795 728.315 478.223 658.342 583.348 570.132C688.473 481.922 775.342 392.216 830.813 318.506C858.553 281.645 878.407 248.829 888.778 222.232C893.964 208.932 896.76 197.237 897.012 187.397C897.265 177.566 894.979 169.651 890.072 163.802C885.164 157.954 877.766 154.329 868.041 152.87C858.306 151.41 846.303 152.132 832.305 154.93C804.311 160.525 768.546 174.379 727.428 195.297C645.206 237.125 541.778 307.098 436.653 395.308C331.528 483.518 244.659 573.224 189.188 646.933C161.448 683.795 141.594 716.61 131.223 743.208C126.037 756.508 123.241 768.203 122.989 778.043C122.736 787.874 125.022 795.789 129.929 801.638Z" stroke="#2B2C3B" stroke-width="2"/>
<path opacity="0.0689655" d="M159.17 837.517C164.569 842.915 172.254 845.882 182.07 846.487C191.895 847.093 203.789 845.328 217.49 841.321C244.891 833.307 279.312 816.389 318.451 791.967C396.714 743.131 493.649 664.411 590.686 567.374C687.723 470.337 766.444 373.402 815.279 295.138C839.701 255.999 856.619 221.578 864.633 194.178C868.64 180.477 870.406 168.582 869.8 158.758C869.194 148.942 866.227 141.256 860.829 135.858C855.431 130.46 847.745 127.493 837.929 126.887C828.105 126.281 816.21 128.047 802.509 132.054C775.109 140.068 740.688 156.986 701.549 181.408C623.285 230.243 526.35 308.964 429.313 406.001C332.276 503.038 253.556 599.973 204.72 678.237C180.298 717.375 163.38 751.796 155.366 779.197C151.359 792.898 149.594 804.792 150.2 814.617C150.805 824.433 153.772 832.118 159.17 837.517Z" stroke="#2B2C3B" stroke-width="2"/>
<path opacity="0.103448" d="M191.083 870.729C196.931 875.636 204.846 877.922 214.678 877.669C224.517 877.417 236.213 874.621 249.512 869.435C276.11 859.064 308.926 839.21 345.787 811.47C419.496 755.999 509.202 669.13 597.412 564.005C685.622 458.88 755.595 355.452 797.424 273.23C818.341 232.112 832.195 196.347 837.79 168.353C840.588 154.355 841.31 142.352 839.85 132.618C838.392 122.892 834.766 115.494 828.918 110.586C823.07 105.679 815.155 103.393 805.323 103.646C795.483 103.898 783.788 106.694 770.489 111.88C743.891 122.251 711.075 142.105 674.214 169.845C600.504 225.316 510.799 312.185 422.588 417.31C334.378 522.435 264.406 625.863 222.577 708.085C201.659 749.203 187.806 784.968 182.21 812.962C179.413 826.96 178.69 838.963 180.15 848.698C181.609 858.423 185.235 865.822 191.083 870.729Z" stroke="#2B2C3B" stroke-width="2"/>
<path opacity="0.137931" d="M225.422 901.047C231.675 905.426 239.759 907.013 249.531 905.905C259.312 904.795 270.719 900.991 283.516 894.666C309.108 882.015 340.069 859.377 374.372 828.53C442.966 766.846 524.76 672.489 603.472 560.076C682.184 447.663 742.876 338.531 777.38 252.976C794.634 210.191 805.318 173.355 808.452 144.979C810.019 130.791 809.693 118.77 807.39 109.2C805.089 99.6387 800.832 92.5848 794.579 88.2059C788.325 83.8271 780.241 82.2399 770.469 83.3481C760.688 84.4572 749.281 88.2615 736.484 94.5869C710.892 107.237 679.931 129.875 645.628 160.723C577.034 222.406 495.241 316.764 416.528 429.177C337.816 541.59 277.124 650.722 242.621 736.277C225.366 779.062 214.682 815.898 211.548 844.274C209.981 858.462 210.308 870.482 212.611 880.052C214.911 889.614 219.168 896.668 225.422 901.047Z" stroke="#2B2C3B" stroke-width="2"/>
<path opacity="0.172414" d="M261.927 928.271C268.538 932.088 276.73 932.965 286.368 931.009C296.015 929.052 307.047 924.268 319.244 916.851C343.636 902.019 372.506 876.768 403.99 843.049C466.947 775.621 540.205 674.494 608.821 555.649C677.436 436.803 728.386 322.797 755.301 234.56C768.761 190.434 776.194 152.807 776.843 124.266C777.167 109.995 775.794 98.0491 772.666 88.7164C769.541 79.3915 764.686 72.7355 758.074 68.9183C751.463 65.1012 743.271 64.2246 733.633 66.1803C723.986 68.1376 712.954 72.9217 700.757 80.3383C676.365 95.171 647.495 120.421 616.011 154.141C553.053 221.568 479.795 322.695 411.18 441.541C342.564 560.386 291.615 674.393 264.7 762.629C251.24 806.755 243.807 844.382 243.158 872.923C242.833 887.194 244.206 899.141 247.334 908.473C250.46 917.798 255.315 924.454 261.927 928.271Z" stroke="#2B2C3B" stroke-width="2"/>
<path opacity="0.206897" d="M300.319 952.227C307.238 955.454 315.475 955.613 324.906 952.825C334.345 950.034 344.919 944.307 356.423 935.855C379.43 918.953 405.989 891.283 434.414 854.947C491.255 782.289 555.421 675.162 613.417 550.789C671.413 426.416 712.233 308.402 731.355 218.156C740.918 173.024 745.043 134.893 743.202 106.404C742.282 92.1588 739.873 80.3777 735.943 71.3531C732.017 62.3362 726.6 56.1286 719.681 52.9022C712.762 49.6758 704.525 49.5166 695.094 52.3048C685.655 55.0954 675.081 60.8228 663.577 69.2742C640.57 86.1764 614.011 113.847 585.586 150.182C528.745 222.84 464.579 329.967 406.583 454.341C348.587 578.714 307.767 696.728 288.645 786.974C279.082 832.105 274.957 870.237 276.798 898.726C277.718 912.971 280.127 924.752 284.057 933.776C287.983 942.793 293.4 949.001 300.319 952.227Z" stroke="#2B2C3B" stroke-width="2"/>
<path opacity="0.241379" d="M340.307 972.762C347.481 975.373 355.701 974.813 364.853 971.214C374.013 967.611 384.047 960.984 394.771 951.562C416.217 932.719 440.264 902.839 465.414 864.165C515.706 786.829 570.291 674.517 617.226 545.563C664.162 416.608 694.541 295.486 705.725 203.916C711.318 158.123 712.104 119.777 707.787 91.557C705.628 77.4464 702.202 65.9201 697.501 57.2723C692.803 48.6319 686.866 42.92 679.692 40.309C672.519 37.6979 664.299 38.2571 655.147 41.8568C645.987 45.4594 635.953 52.0865 625.229 61.5084C603.783 80.3515 579.736 110.231 554.586 148.906C504.294 226.241 449.709 338.553 402.773 467.508C355.838 596.463 325.459 717.585 314.275 809.154C308.682 854.947 307.896 893.293 312.213 921.514C314.371 935.624 317.798 947.15 322.499 955.798C327.196 964.439 333.133 970.15 340.307 972.762Z" stroke="#2B2C3B" stroke-width="2"/>
<path opacity="0.275862" d="M381.587 989.744C388.962 991.72 397.101 990.446 405.905 986.063C414.716 981.675 424.134 974.199 433.996 963.878C453.718 943.238 475.069 911.376 496.753 870.656C540.114 789.232 584.702 672.59 620.22 540.035C655.738 407.481 675.444 284.172 678.605 191.976C680.186 145.87 677.626 107.601 670.867 79.8646C667.486 65.9958 663.068 54.812 657.631 46.6069C652.199 38.4087 645.787 33.2361 638.412 31.2602C631.038 29.2843 622.899 30.5578 614.095 34.9414C605.284 39.3287 595.866 46.8051 586.004 57.1257C566.282 77.7663 544.931 109.628 523.247 150.348C479.886 231.772 435.298 348.414 399.78 480.969C364.262 613.523 344.556 736.832 341.395 829.028C339.814 875.134 342.373 913.403 349.133 941.139C352.513 955.008 356.931 966.192 362.369 974.397C367.801 982.595 374.213 987.768 381.587 989.744Z" stroke="#2B2C3B" stroke-width="2"/>
<path opacity="0.310345" d="M423.845 1003.08C431.363 1004.41 439.361 1002.43 447.749 997.295C456.144 992.156 464.875 983.887 473.8 972.746C491.648 950.465 510.141 916.864 528.193 874.41C564.292 789.516 598.545 669.432 622.375 534.286C646.205 399.14 655.089 274.583 650.202 182.462C647.759 136.394 641.874 98.4937 632.722 71.4519C628.146 57.9306 622.77 47.1744 616.639 39.4743C610.512 31.7809 603.674 27.1867 596.155 25.8611C588.637 24.5354 580.639 26.5135 572.251 31.6476C563.856 36.7862 555.125 45.055 546.201 56.1959C528.352 78.4768 509.86 112.078 491.807 154.533C455.708 239.426 421.456 359.511 397.626 494.656C373.796 629.802 364.912 754.36 369.798 846.48C372.242 892.549 378.127 930.449 387.278 957.49C391.854 971.012 397.23 981.768 403.362 989.468C409.488 997.161 416.327 1001.76 423.845 1003.08Z" stroke="#2B2C3B" stroke-width="2"/>
<path opacity="0.344828" d="M466.758 1012.7C474.363 1013.37 482.158 1010.7 490.067 1004.85C497.982 999.002 505.959 990.004 513.878 978.127C529.717 954.375 545.211 919.29 559.495 875.424C588.057 787.707 611.713 665.095 623.674 528.386C635.634 391.677 633.629 266.82 620.732 175.476C614.283 129.796 605.117 92.5528 593.643 66.4115C587.906 53.3404 581.613 43.0937 574.834 35.9574C568.06 28.8271 560.847 24.8465 553.242 24.1811C545.637 23.5157 537.842 26.1833 529.933 32.0291C522.018 37.8798 514.041 46.878 506.121 58.7543C490.283 82.5061 474.789 117.591 460.505 161.458C431.943 249.175 408.287 371.787 396.326 508.496C384.366 645.204 386.371 770.062 399.268 861.406C405.717 907.086 414.883 944.329 426.357 970.47C432.094 983.541 438.387 993.788 445.166 1000.92C451.939 1008.05 459.153 1012.04 466.758 1012.7Z" stroke="#2B2C3B" stroke-width="2"/>
<path opacity="0.37931" d="M510.001 1018.56C517.635 1018.56 525.168 1015.22 532.537 1008.71C539.912 1002.19 547.074 992.532 553.929 980.011C567.637 954.969 580.014 918.667 590.42 873.723C611.229 783.85 624.109 659.642 624.109 522.412C624.109 385.181 611.229 260.973 590.42 171.101C580.014 126.156 567.637 89.8542 553.929 64.8124C547.074 52.2911 539.912 42.6318 532.537 36.1135C525.168 29.6007 517.635 26.2639 510.001 26.2639C502.366 26.2639 494.834 29.6007 487.465 36.1135C480.089 42.6318 472.927 52.2911 466.073 64.8124C452.364 89.8542 439.987 126.156 429.581 171.101C408.772 260.973 395.893 385.181 395.893 522.412C395.893 659.642 408.772 783.85 429.581 873.723C439.987 918.667 452.364 954.969 466.073 980.011C472.927 992.532 480.089 1002.19 487.465 1008.71C494.834 1015.22 502.366 1018.56 510.001 1018.56Z" stroke="#2B2C3B" stroke-width="2"/>
<path opacity="0.413793" d="M553.242 1020.64C560.848 1019.98 568.061 1015.99 574.834 1008.86C581.614 1001.73 587.907 991.481 593.644 978.41C605.117 952.269 614.283 915.026 620.732 869.346C633.629 778.002 635.635 653.144 623.674 516.436C611.714 379.727 588.057 257.115 559.495 169.398C545.211 125.532 529.717 90.4463 513.879 66.6946C505.959 54.8183 497.982 45.82 490.067 39.9693C482.158 34.1236 474.363 31.456 466.758 32.1213C459.153 32.7867 451.94 36.7673 445.166 43.8976C438.387 51.0339 432.094 61.2806 426.357 74.3517C414.883 100.493 405.718 137.736 399.268 183.416C386.371 274.76 384.366 399.618 396.326 536.326C408.287 673.035 431.943 795.647 460.506 883.364C474.789 927.23 490.283 962.316 506.122 986.067C514.041 997.944 522.018 1006.94 529.934 1012.79C537.842 1018.64 545.637 1021.31 553.242 1020.64Z" stroke="#2B2C3B" stroke-width="2"/>
<path opacity="0.448276" d="M596.156 1018.96C603.674 1017.64 610.513 1013.04 616.639 1005.35C622.771 997.648 628.147 986.892 632.723 973.37C641.874 946.328 647.759 908.428 650.203 862.36C655.089 770.24 646.205 645.682 622.375 510.536C598.545 375.39 564.293 255.306 528.194 170.413C510.141 127.958 491.649 94.3567 473.8 72.0757C464.875 60.9348 456.145 52.6661 447.749 47.5275C439.361 42.3933 431.364 40.4152 423.845 41.7409C416.327 43.0666 409.488 47.6607 403.362 55.3542C397.231 63.0542 391.855 73.8104 387.279 87.3318C378.127 114.374 372.242 152.273 369.798 198.342C364.912 290.462 373.796 415.02 397.626 550.166C421.456 685.312 455.709 805.396 491.807 890.289C509.86 932.744 528.353 966.345 546.201 988.626C555.126 999.767 563.856 1008.04 572.252 1013.17C580.64 1018.31 588.637 1020.29 596.156 1018.96Z" stroke="#2B2C3B" stroke-width="2"/>
<path opacity="0.482759" d="M638.412 1013.56C645.786 1011.58 652.199 1006.41 657.631 998.213C663.068 990.008 667.486 978.824 670.866 964.956C677.626 937.219 680.186 898.951 678.605 852.844C675.444 760.649 655.738 637.34 620.22 504.785C584.702 372.23 540.113 255.588 496.753 174.164C475.069 133.444 453.718 101.583 433.996 80.9419C424.134 70.6213 414.716 63.1449 405.905 58.7576C397.101 54.374 388.961 53.1005 381.587 55.0764C374.213 57.0523 367.801 62.2249 362.368 70.4231C356.931 78.6282 352.513 89.812 349.133 103.681C342.373 131.417 339.814 169.686 341.395 215.792C344.555 307.988 364.262 431.297 399.78 563.852C435.298 696.406 479.886 813.048 523.246 894.473C544.931 935.192 566.281 967.054 586.004 987.695C595.865 998.015 605.284 1005.49 614.095 1009.88C622.898 1014.26 631.038 1015.54 638.412 1013.56Z" stroke="#2B2C3B" stroke-width="2"/>
<path opacity="0.517241" d="M679.693 1004.51C686.867 1001.9 692.804 996.192 697.501 987.551C702.202 978.903 705.629 967.377 707.788 953.266C712.104 925.046 711.319 886.7 705.725 840.907C694.541 749.338 664.163 628.216 617.227 499.261C570.291 370.306 515.707 257.994 465.415 180.659C440.264 141.984 416.218 112.104 394.771 93.2613C384.048 83.8394 374.014 77.2123 364.854 73.6097C355.701 70.0101 347.482 69.4508 340.308 72.0619C333.134 74.673 327.197 80.3848 322.5 89.0252C317.799 97.673 314.372 109.199 312.213 123.31C307.897 151.53 308.682 189.876 314.276 235.669C325.46 327.238 355.838 448.361 402.774 577.315C449.71 706.27 504.294 818.582 554.586 895.918C579.737 934.592 603.783 964.472 625.23 983.315C635.953 992.737 645.987 999.364 655.147 1002.97C664.3 1006.57 672.519 1007.13 679.693 1004.51Z" stroke="#2B2C3B" stroke-width="2"/>
<path opacity="0.551724" d="M719.681 991.919C726.6 988.692 732.017 982.485 735.943 973.468C739.873 964.443 742.282 952.662 743.202 938.417C745.043 909.928 740.918 871.797 731.355 826.665C712.233 736.419 671.414 618.405 613.417 494.032C555.421 369.659 491.256 262.532 434.415 189.874C405.989 153.538 379.43 125.868 356.423 108.966C344.919 100.514 334.346 94.787 324.906 91.9964C315.475 89.2081 307.238 89.3674 300.319 92.5938C293.4 95.8202 287.983 102.028 284.057 111.045C280.128 120.069 277.719 131.85 276.798 146.095C274.957 174.584 279.082 212.716 288.645 257.847C307.768 348.093 348.587 466.107 406.583 590.48C464.579 714.854 528.745 821.981 585.586 894.639C614.011 930.974 640.571 958.645 663.578 975.547C675.082 983.998 685.655 989.726 695.094 992.516C704.525 995.304 712.762 995.145 719.681 991.919Z" stroke="#2B2C3B" stroke-width="2"/>
<path opacity="0.586207" d="M758.074 975.903C764.686 972.086 769.541 965.43 772.666 956.105C775.794 946.772 777.167 934.826 776.843 920.555C776.193 892.014 768.761 854.387 755.301 810.261C728.386 722.025 677.436 608.018 608.821 489.172C540.205 370.327 466.947 269.2 403.99 201.772C372.506 168.053 343.636 142.802 319.243 127.97C307.047 120.553 296.014 115.769 286.368 113.812C276.73 111.856 268.538 112.733 261.926 116.55C255.315 120.367 250.46 127.023 247.334 136.348C244.206 145.681 242.833 157.627 243.158 171.898C243.807 200.439 251.239 238.066 264.699 282.192C291.615 370.428 342.564 484.435 411.18 603.28C479.795 722.126 553.053 823.253 616.01 890.68C647.495 924.4 676.364 949.65 700.757 964.483C712.954 971.899 723.986 976.683 733.632 978.641C743.271 980.596 751.463 979.72 758.074 975.903Z" stroke="#2B2C3B" stroke-width="2"/>
<path opacity="0.62069" d="M794.578 956.615C800.832 952.237 805.089 945.183 807.389 935.621C809.692 926.051 810.019 914.031 808.452 899.842C805.317 871.466 794.634 834.63 777.379 791.845C742.876 706.291 682.184 597.158 603.472 484.745C524.759 372.332 442.966 277.975 374.372 216.291C340.069 185.444 309.108 162.806 283.515 150.156C270.719 143.83 259.312 140.026 249.531 138.917C239.759 137.809 231.675 139.396 225.421 143.775C219.168 148.153 214.911 155.207 212.61 164.769C210.307 174.339 209.981 186.359 211.548 200.548C214.682 228.924 225.366 265.76 242.62 308.545C277.124 394.099 337.816 503.232 416.528 615.645C495.24 728.058 577.033 822.415 645.628 884.099C679.931 914.946 710.892 937.584 736.484 950.234C749.281 956.56 760.688 960.364 770.469 961.473C780.241 962.581 788.325 960.994 794.578 956.615Z" stroke="#2B2C3B" stroke-width="2"/>
<path opacity="0.655172" d="M828.918 934.236C834.766 929.329 838.391 921.931 839.85 912.205C841.31 902.471 840.588 890.467 837.79 876.47C832.194 848.475 818.341 812.71 797.423 771.592C755.595 689.37 685.622 585.942 597.412 480.818C509.202 375.693 419.496 288.823 345.787 233.352C308.925 205.612 276.109 185.759 249.512 175.387C236.212 170.201 224.517 167.405 214.677 167.153C204.846 166.901 196.931 169.186 191.082 174.094C185.234 179.001 181.609 186.399 180.15 196.125C178.69 205.859 179.412 217.862 182.21 231.86C187.805 259.855 201.659 295.619 222.577 336.738C264.405 418.96 334.378 522.387 422.588 627.512C510.798 732.637 600.504 819.507 674.213 874.977C711.075 902.717 743.89 922.571 770.488 932.943C783.788 938.129 795.483 940.924 805.323 941.177C815.154 941.429 823.069 939.143 828.918 934.236Z" stroke="#2B2C3B" stroke-width="2"/>
<path opacity="0.689655" d="M860.829 908.964C866.228 903.565 869.195 895.88 869.8 886.064C870.406 876.239 868.641 864.345 864.633 850.644C856.619 823.243 839.702 788.822 815.28 749.684C766.444 671.42 687.723 574.485 590.687 477.448C493.65 380.411 396.714 301.69 318.451 252.855C279.312 228.433 244.891 211.515 217.49 203.501C203.79 199.494 191.895 197.728 182.071 198.334C172.255 198.94 164.569 201.907 159.171 207.305C153.772 212.703 150.805 220.389 150.2 230.205C149.594 240.029 151.36 251.924 155.367 265.625C163.381 293.025 180.298 327.446 204.721 366.585C253.556 444.849 332.277 541.784 429.313 638.821C526.35 735.858 623.286 814.578 701.549 863.414C740.688 887.836 775.109 904.754 802.51 912.768C816.21 916.775 828.105 918.54 837.929 917.934C847.745 917.329 855.431 914.362 860.829 908.964Z" stroke="#2B2C3B" stroke-width="2"/>
<path opacity="0.724138" d="M890.071 881.021C894.978 875.173 897.264 867.258 897.012 857.426C896.759 847.586 893.964 835.891 888.778 822.592C878.406 795.994 858.553 763.178 830.813 726.317C775.342 652.608 688.472 562.902 583.347 474.692C478.222 386.481 374.795 316.509 292.573 274.68C251.455 253.762 215.69 239.909 187.695 234.314C173.697 231.516 161.694 230.793 151.96 232.253C142.234 233.712 134.836 237.338 129.929 243.186C125.022 249.034 122.736 256.949 122.988 266.781C123.241 276.62 126.036 288.316 131.222 301.615C141.594 328.213 161.447 361.029 189.188 397.89C244.658 471.599 331.528 561.305 436.653 649.515C541.778 737.726 645.205 807.698 727.427 849.527C768.546 870.445 804.31 884.298 832.305 889.893C846.303 892.691 858.306 893.413 868.04 891.953C877.766 890.495 885.164 886.869 890.071 881.021Z" stroke="#2B2C3B" stroke-width="2"/>
<path opacity="0.758621" d="M916.42 850.652C920.799 844.398 922.387 836.314 921.278 826.542C920.169 816.762 916.365 805.354 910.04 792.558C897.389 766.965 874.751 736.005 843.904 701.701C782.22 633.107 687.863 551.314 575.45 472.602C463.037 393.889 353.904 333.197 268.35 298.694C225.565 281.439 188.729 270.756 160.353 267.621C146.165 266.054 134.144 266.381 124.574 268.684C115.012 270.985 107.959 275.241 103.58 281.495C99.2009 287.748 97.6137 295.833 98.7219 305.605C99.831 315.385 103.635 326.792 109.961 339.589C122.611 365.182 145.249 396.142 176.096 430.445C237.78 499.04 332.138 580.833 444.55 659.545C556.963 738.258 666.096 798.95 751.65 833.453C794.435 850.707 831.272 861.391 859.647 864.525C873.836 866.092 885.856 865.766 895.426 863.463C904.988 861.162 912.042 856.906 916.42 850.652Z" stroke="#2B2C3B" stroke-width="2"/>
<path opacity="0.793103" d="M939.677 818.116C943.494 811.504 944.37 803.312 942.415 793.674C940.457 784.028 935.673 772.995 928.257 760.799C913.424 736.406 888.174 707.536 854.454 676.052C787.027 613.095 685.899 539.837 567.054 471.221C448.209 402.606 334.202 351.656 245.966 324.741C201.84 311.281 164.213 303.849 135.672 303.199C121.401 302.875 109.454 304.248 100.122 307.376C90.7968 310.502 84.1407 315.357 80.3236 321.968C76.5064 328.58 75.6299 336.771 77.5855 346.41C79.5428 356.056 84.3269 367.088 91.7435 379.285C106.576 403.678 131.826 432.548 165.546 464.032C232.974 526.989 334.101 600.247 452.946 668.862C571.791 737.478 685.798 788.427 774.035 815.343C818.16 828.803 855.788 836.235 884.328 836.884C898.599 837.209 910.546 835.836 919.879 832.708C929.203 829.582 935.859 824.727 939.677 818.116Z" stroke="#2B2C3B" stroke-width="2"/>
<path opacity="0.827586" d="M959.663 783.692C962.889 776.773 963.048 768.536 960.26 759.105C957.47 749.666 951.742 739.092 943.291 727.588C926.389 704.581 898.718 678.022 862.383 649.597C789.725 592.756 682.598 528.59 558.224 470.594C433.851 412.598 315.837 371.778 225.591 352.656C180.46 343.093 142.328 338.968 113.839 340.809C99.5944 341.729 87.8132 344.138 78.7886 348.068C69.7717 351.994 63.5641 357.411 60.3377 364.33C57.1114 371.249 56.9521 379.486 59.7403 388.917C62.531 398.356 68.2583 408.93 76.7097 420.434C93.612 443.441 121.282 470 157.618 498.425C230.276 555.266 337.403 619.432 461.776 677.428C586.149 735.424 704.163 776.244 794.409 795.366C839.541 804.929 877.672 809.054 906.161 807.213C920.406 806.293 932.187 803.884 941.212 799.954C950.229 796.028 956.436 790.611 959.663 783.692Z" stroke="#2B2C3B" stroke-width="2"/>
<path opacity="0.862069" d="M976.226 747.673C978.837 740.5 978.278 732.28 974.678 723.128C971.075 713.968 964.448 703.934 955.026 693.21C936.183 671.764 906.304 647.717 867.629 622.567C790.294 572.275 677.982 517.69 549.027 470.754C420.072 423.819 298.95 393.44 207.38 382.256C161.588 376.663 123.241 375.877 95.0213 380.194C80.9108 382.352 69.3845 385.779 60.7367 390.48C52.0963 395.177 46.3844 401.115 43.7733 408.288C41.1622 415.462 41.7215 423.682 45.3211 432.834C48.9238 441.994 55.5509 452.028 64.9728 462.752C83.8159 484.198 113.696 508.245 152.37 533.395C229.706 583.687 342.018 638.272 470.972 685.207C599.927 732.143 721.049 762.522 812.619 773.706C858.412 779.299 896.758 780.085 924.978 775.768C939.088 773.609 950.615 770.183 959.263 765.482C967.903 760.784 973.615 754.847 976.226 747.673Z" stroke="#2B2C3B" stroke-width="2"/>
<path opacity="0.896552" d="M989.242 710.362C991.218 702.988 989.944 694.848 985.561 686.045C981.173 677.233 973.697 667.815 963.376 657.954C942.736 638.231 910.874 616.88 870.154 595.196C788.73 551.836 672.088 507.247 539.533 471.73C406.979 436.212 283.67 416.505 191.474 413.344C145.368 411.763 107.099 414.323 79.3625 421.083C65.4938 424.463 54.3099 428.881 46.1048 434.318C37.9067 439.75 32.734 446.163 30.7581 453.537C28.7822 460.911 30.0557 469.051 34.4393 477.854C38.8266 486.666 46.303 496.084 56.6237 505.945C77.2642 525.668 109.126 547.019 149.846 568.703C231.27 612.063 347.912 656.651 480.467 692.169C613.021 727.687 736.33 747.394 828.526 750.555C874.632 752.135 912.901 749.576 940.637 742.816C954.506 739.436 965.69 735.018 973.895 729.581C982.093 724.148 987.266 717.736 989.242 710.362Z" stroke="#2B2C3B" stroke-width="2"/>
<path opacity="0.931035" d="M998.61 672.074C999.936 664.556 997.958 656.558 992.823 648.17C987.685 639.775 979.416 631.044 968.275 622.12C945.994 604.271 912.393 585.779 869.938 567.726C785.045 531.627 664.961 497.374 529.815 473.545C394.669 449.715 270.111 440.83 177.991 445.717C131.922 448.161 94.0225 454.046 66.9807 463.197C53.4593 467.773 42.7031 473.149 35.0031 479.281C27.3096 485.407 22.7155 492.246 21.3898 499.764C20.0641 507.282 22.0422 515.28 27.1764 523.668C32.315 532.063 40.5838 540.794 51.7246 549.719C74.0056 567.567 107.607 586.06 150.061 604.112C234.955 640.211 355.039 674.464 490.185 698.294C625.331 722.123 749.888 731.008 842.009 726.121C888.077 723.678 925.977 717.793 953.019 708.641C966.54 704.065 977.297 698.689 984.997 692.558C992.69 686.431 997.284 679.593 998.61 672.074Z" stroke="#2B2C3B" stroke-width="2"/>
<path opacity="0.965517" d="M1004.26 633.129C1004.92 625.524 1002.26 617.729 996.412 609.82C990.561 601.905 981.563 593.928 969.686 586.009C945.934 570.17 910.849 554.676 866.983 540.392C779.266 511.83 656.654 488.174 519.945 476.213C383.236 464.253 258.379 466.258 167.035 479.155C121.355 485.604 84.1117 494.77 57.9705 506.244C44.8994 511.981 34.6527 518.274 27.5163 525.053C20.3861 531.827 16.4054 539.04 15.7401 546.645C15.0747 554.25 17.7423 562.045 23.588 569.954C29.4387 577.869 38.437 585.846 50.3133 593.766C74.0651 609.604 109.15 625.098 153.017 639.382C240.734 667.944 363.346 691.6 500.055 703.561C636.763 715.521 761.621 713.516 852.965 700.619C898.645 694.17 935.888 685.004 962.029 673.53C975.1 667.793 985.347 661.5 992.483 654.721C999.613 647.948 1003.59 640.734 1004.26 633.129Z" stroke="#2B2C3B" stroke-width="2"/>
<path d="M1006.15 593.857C1006.15 586.223 1002.81 578.69 996.298 571.321C989.78 563.946 980.121 556.783 967.599 549.929C942.558 536.221 906.255 523.844 861.311 513.438C771.439 492.629 647.231 479.749 510 479.749C372.769 479.749 248.562 492.629 158.689 513.438C113.745 523.844 77.4429 536.221 52.4011 549.929C39.8797 556.783 30.2205 563.946 23.7021 571.321C17.1894 578.69 13.8526 586.223 13.8526 593.857C13.8526 601.491 17.1894 609.024 23.7021 616.393C30.2205 623.769 39.8797 630.931 52.4011 637.785C77.4429 651.493 113.745 663.87 158.689 674.276C248.562 695.085 372.769 707.965 510 707.965C647.231 707.965 771.439 695.085 861.311 674.276C906.255 663.87 942.558 651.493 967.599 637.785C980.121 630.931 989.78 623.769 996.298 616.393C1002.81 609.024 1006.15 601.491 1006.15 593.857Z" stroke="#2B2C3B" stroke-width="2"/>
</g>
</svg>
